HIERARCHY
ROOT Hips
{
	OFFSET	0.000000	0.000000	0.000000
	CHANNELS 6 Xposition Yposition Zposition Zrotation Xrotation Yrotation
	JOINT LeftUpLeg
	{
		OFFSET	12.811937	-7.635976	0.557276
		CHANNELS 3 Zrotation Xrotation Yrotation
		JOINT LeftLeg
		{
			OFFSET	-0.429270	-42.206159	-1.204951
			CHANNELS 3 Zrotation Xrotation Yrotation
			JOINT LeftFoot
			{
				OFFSET	-2.112259	-42.464481	-3.973220
				CHANNELS 3 Zrotation Xrotation Yrotation
				JOINT LeftFootHeel
				{
					OFFSET	0.387196	-5.329707	-3.419729
					CHANNELS 3 Zrotation Xrotation Yrotation
					End Site
					{
						OFFSET	0.327567	-0.000003	16.505428
					}
				}
			}
		}
	}
	JOINT RightUpLeg
	{
		OFFSET	-12.811937	-7.635976	0.557276
		CHANNELS 3 Zrotation Xrotation Yrotation
		JOINT RightLeg
		{
			OFFSET	0.429270	-42.206159	-1.204951
			CHANNELS 3 Zrotation Xrotation Yrotation
			JOINT RightFoot
			{
				OFFSET	2.112259	-42.464481	-3.973220
				CHANNELS 3 Zrotation Xrotation Yrotation
				JOINT RightFootHeel
				{
					OFFSET	-0.387198	-5.329707	-3.419729
					CHANNELS 3 Zrotation Xrotation Yrotation
					End Site
					{
						OFFSET	-0.327566	-0.000003	16.505428
					}
				}
			}
		}
	}
	JOINT Spine
	{
		OFFSET	0.000000	13.731315	-1.007646
		CHANNELS 3 Zrotation Xrotation Yrotation
		JOINT Spine1
		{
			OFFSET	0.000000	12.091746	-0.604589
			CHANNELS 3 Zrotation Xrotation Yrotation
			JOINT LeftShoulder
			{
				OFFSET	5.746115	20.990027	-0.833816
				CHANNELS 3 Zrotation Xrotation Yrotation
				JOINT LeftArm
				{
					OFFSET	10.881538	-1.359258	0.219250
					CHANNELS 3 Zrotation Xrotation Yrotation
					JOINT LeftForeArm
					{
						OFFSET	4.390314	-31.537147	0.202818
						CHANNELS 3 Zrotation Xrotation Yrotation
						JOINT LeftHand
						{
							OFFSET	3.168650	-24.865023	5.373370
							CHANNELS 3 Zrotation Xrotation Yrotation
							End Site
							{
								OFFSET	1.457528	-10.806075	2.170267
							}
						}
					}
				}
			}
			JOINT RightShoulder
			{
				OFFSET	-5.746115	20.990027	-0.833816
				CHANNELS 3 Zrotation Xrotation Yrotation
				JOINT RightArm
				{
					OFFSET	-10.881538	-1.359258	0.219250
					CHANNELS 3 Zrotation Xrotation Yrotation
					JOINT RightForeArm
					{
						OFFSET	-4.390314	-31.537147	0.202818
						CHANNELS 3 Zrotation Xrotation Yrotation
						JOINT RightHand
						{
							OFFSET	-3.168650	-24.865023	5.373370
							CHANNELS 3 Zrotation Xrotation Yrotation
							End Site
							{
								OFFSET	-1.457528	-10.806075	2.170267
							}
						}
					}
				}
			}
			JOINT Neck
			{
				OFFSET	0.000000	27.075639	0.680489
				CHANNELS 3 Zrotation Xrotation Yrotation
				JOINT Head
				{
					OFFSET	0.000000	12.391287	1.239129
					CHANNELS 3 Zrotation Xrotation Yrotation
					End Site
					{
						OFFSET	0.000000	13.818691	-0.105853
					}
				}
			}
		}
	}
}
MOTION
Frames:    13
Frame Time: 0.016667
0.000000	100.269692	0.000000	1.404123	0.980160	-1.616211	-1.534775	0.374107	0.023475	0.656722	-0.158093	1.594923	-1.326012	0.422771	-1.639965	0.	0.	0.	-2.318141	2.336817	2.790018	1.643098	-2.805821	-4.414712	-0.873135	-0.646506	0.264040	0.	0.	0.	-1.461452	5.022439	1.325477	-0.014983	-3.002109	-4.331511	-0.787013	-0.480934	2.879921	0.780845	-2.030508	-1.315402	1.139799	0.068240	-5.871240	2.269923	-0.218877	-6.845459	-0.496605	0.643410	1.919298	-2.049361	-5.038075	2.570680	2.284335	-1.298767	6.465776	-0.681904	1.566787	29.578114	-2.432740	-2.102569	4.478412	1.814117	-0.774314	-2.929550	
0.000527	100.268869	0.001842	1.400549	0.979507	-1.624849	-1.531095	0.377128	0.023028	0.655537	-0.157466	1.604039	-1.325071	0.419719	-1.639966	0.	0.	0.	-2.314943	2.337216	2.798748	1.643098	-2.805821	-4.414713	-0.873135	-0.646506	0.264040	0.	0.	0.	-1.460166	5.032203	1.333633	-0.013427	-3.004152	-4.330218	-0.788994	-0.482246	2.875101	0.781585	-2.030084	-1.319089	1.141735	0.067438	-5.871486	2.269789	-0.222196	-6.843754	-0.500602	0.642171	1.911025	-2.044589	-5.044464	2.578186	2.284335	-1.298766	6.465776	-0.683498	1.567921	29.584732	-2.435885	-2.108864	4.470509	1.819497	-0.773528	-2.931478	
0.002041	100.266514	0.007166	1.390248	0.977665	-1.649722	-1.523791	0.377023	0.023120	0.652178	-0.137357	1.628665	-1.319391	0.401298	-1.640028	0.	0.	0.	-2.305726	2.338343	2.823884	1.643098	-2.805821	-4.414712	-0.873135	-0.646506	0.264040	0.	0.	0.	-1.456653	5.061490	1.357010	-0.008746	-3.009757	-4.326200	-0.795537	-0.485157	2.859392	0.784500	-2.035419	-1.309429	1.140179	0.070214	-5.878131	2.273850	-0.229339	-6.867003	-0.512879	0.638296	1.885542	-2.029912	-5.064098	2.601258	2.284335	-1.298766	6.465776	-0.685744	1.569507	29.594042	-2.445537	-2.128303	4.446187	1.836283	-0.770860	-2.938643	
0.003004	100.265002	0.010553	1.383685	0.976494	-1.665560	-1.519111	0.376967	0.023416	0.649819	-0.124025	1.644090	-1.315606	0.389019	-1.640062	0.	0.	0.	-2.299853	2.339060	2.839888	1.643098	-2.805821	-4.414712	-0.873135	-0.646506	0.264041	0.	0.	0.	-1.454365	5.079724	1.371938	-0.005840	-3.013172	-4.323730	-0.800382	-0.484984	2.848199	0.785159	-2.035178	-1.300053	1.138687	0.067629	-5.880759	2.279428	-0.236224	-6.866609	-0.521103	0.636674	1.868621	-2.020108	-5.077227	2.616675	2.284334	-1.298767	6.465776	-0.686986	1.572576	29.593254	-2.451267	-2.140530	4.431611	1.846895	-0.764841	-2.946260	
0.003458	100.264285	0.012150	1.380582	0.975936	-1.673047	-1.516911	0.376941	0.023466	0.648595	-0.117365	1.651438	-1.313705	0.382857	-1.640049	0.	0.	0.	-2.297077	2.339403	2.847455	1.643098	-2.805821	-4.414713	-0.873135	-0.646506	0.264041	0.	0.	0.	-1.453250	5.088142	1.379015	-0.004487	-3.014506	-4.322566	-0.802836	-0.484558	2.842590	0.785610	-2.035454	-1.295319	1.137875	0.066603	-5.882069	2.281072	-0.234756	-6.862794	-0.525129	0.636021	1.860364	-2.015323	-5.083625	2.624198	2.285182	-1.298816	6.462260	-0.690544	1.579190	29.595114	-2.454411	-2.146267	4.423808	1.851819	-0.750000	-2.948684	
0.004328	100.262929	0.015216	1.374643	0.974887	-1.687364	-1.512744	0.376850	0.023174	0.646157	-0.104190	1.665928	-1.309947	0.370665	-1.640092	0.	0.	0.	-2.291763	2.340049	2.861923	1.643098	-2.805821	-4.414713	-0.873135	-0.646506	0.264041	0.	0.	0.	-1.450978	5.103364	1.392584	-0.002335	-3.025645	-4.321149	-0.808129	-0.473778	2.832361	0.786729	-2.036712	-1.285873	1.140622	0.056627	-5.882168	2.278033	-0.221002	-6.857297	-0.533332	0.644346	1.845234	-2.006063	-5.096004	2.638750	2.289242	-1.299042	6.445396	-0.691845	1.599394	29.609455	-2.461715	-2.147585	4.408116	1.860277	-0.708713	-2.945176	
0.005167	100.261611	0.018177	1.368892	0.973871	-1.701220	-1.508747	0.376752	0.022604	0.645766	-0.097106	1.680351	-1.308077	0.364601	-1.640107	0.	0.	0.	-2.286616	2.340675	2.875924	1.643098	-2.805822	-4.414712	-0.873135	-0.646507	0.264040	0.	0.	0.	-1.448611	5.117043	1.405775	-0.000502	-3.038540	-4.320117	-0.813459	-0.459993	2.822652	0.789822	-2.044419	-1.276301	1.142660	0.050487	-5.881822	2.273103	-0.204314	-6.852643	-0.541423	0.655612	1.830848	-1.997080	-5.108020	2.652876	2.294184	-1.299331	6.424854	-0.691765	1.623858	29.627306	-2.469824	-2.145463	4.391451	1.865541	-0.672258	-2.922444	
0.005992	100.260313	0.021091	1.363256	0.972879	-1.714793	-1.504848	0.376634	0.021839	0.647405	-0.096023	1.694813	-1.308077	0.364601	-1.640107	0.	0.	0.	-2.281574	2.341293	2.889640	1.643098	-2.805821	-4.414712	-0.873135	-0.646506	0.264040	0.	0.	0.	-1.444743	5.120952	1.419313	-0.000060	-3.041645	-4.319860	-0.818613	-0.446661	2.813262	0.794658	-2.057861	-1.266756	1.142660	0.050486	-5.881822	2.268728	-0.189530	-6.848516	-0.549383	0.666683	1.816698	-1.988243	-5.119831	2.666770	2.298770	-1.296643	6.401724	-0.702230	1.642894	29.645790	-2.479960	-2.141107	4.375683	1.872869	-0.642058	-2.901231	
0.009080	100.258443	0.024882	1.354928	0.971414	-1.734851	-1.499129	0.376441	0.020431	0.649868	-0.094402	1.716458	-1.308077	0.364601	-1.640107	0.	0.	0.	-2.276919	2.341526	2.900552	1.646386	-2.805015	-4.405248	-0.873135	-0.646506	0.264040	0.	0.	0.	-1.438277	5.122159	1.439630	-0.000060	-3.041644	-4.319860	-0.825966	-0.427598	2.799834	0.801561	-2.077070	-1.253106	1.142660	0.050487	-5.881823	2.267764	-0.186275	-6.847610	-0.560755	0.682525	1.796471	-1.975597	-5.136715	2.686636	2.304600	-1.288137	6.365338	-0.743619	1.625697	29.676350	-2.503405	-2.124237	4.359291	1.892518	-0.625660	-2.879504	
0.009080	100.258443	0.024882	1.354928	0.971414	-1.734851	-1.499129	0.376441	0.020431	0.649868	-0.094402	1.716458	-1.308077	0.364601	-1.640107	0.	0.	0.	-2.276919	2.341526	2.900552	1.646386	-2.805015	-4.405248	-0.873135	-0.646506	0.264040	0.	0.	0.	-1.438277	5.122159	1.439630	-0.000060	-3.041644	-4.319860	-0.825966	-0.427598	2.799834	0.801561	-2.077070	-1.253106	1.142660	0.050487	-5.881823	2.267764	-0.186275	-6.847610	-0.560755	0.682525	1.796471	-1.975597	-5.136715	2.686636	2.304600	-1.288137	6.365338	-0.743619	1.625697	29.676350	-2.509392	-2.115565	4.354330	1.897879	-0.634603	-2.874468	
0.014533	100.255924	0.029636	1.343727	0.969456	-1.761831	-1.490691	0.376607	0.025273	0.652422	-0.092727	1.738835	-1.308077	0.364601	-1.640107	0.	0.	0.	-2.272601	2.341369	2.908741	1.653088	-2.803378	-4.385958	-0.873135	-0.646506	0.264040	0.	0.	0.	-1.429583	5.123774	1.466958	-0.000060	-3.041644	-4.319860	-0.832764	-0.409978	2.787431	0.807951	-2.094825	-1.240493	1.142660	0.050487	-5.881822	2.267764	-0.186275	-6.847609	-0.575094	0.702518	1.770979	-1.959643	-5.158015	2.711687	2.314461	-1.288740	6.324313	-0.788569	1.644891	29.707075	-2.520129	-2.081292	4.340081	1.906151	-0.669110	-2.859455	
0.017184	100.254645	0.032114	1.337983	0.968458	-1.775665	-1.487784	0.375891	0.015230	0.655172	-0.090926	1.762834	-1.308077	0.364601	-1.640107	0.	0.	0.	-2.270173	2.341335	2.913655	1.656273	-2.802596	-4.376791	-0.873135	-0.646506	0.264040	0.	0.	0.	-1.425126	5.124600	1.480971	-0.000060	-3.041644	-4.319860	-0.839129	-0.393478	2.775815	0.814186	-2.111494	-1.231906	1.142409	0.050591	-5.878585	2.267764	-0.186275	-6.847609	-0.582093	0.712282	1.758525	-1.951844	-5.168411	2.723928	2.318300	-1.288982	6.308345	-0.796383	1.654111	29.720875	-2.526192	-2.065192	4.330387	1.911095	-0.685298	-2.849436	
0.017996	100.253366	0.035004	1.332385	0.967475	-1.789154	-1.484268	0.375590	0.011492	0.657160	-0.089621	1.780178	-1.308077	0.364601	-1.640107	0.	0.	0.	-2.265164	2.341955	2.927284	1.656273	-2.802596	-4.376791	-0.873135	-0.646506	0.264040	0.	0.	0.	-1.420780	5.125422	1.494632	-0.000043	-3.040828	-4.329566	-0.842926	-0.384288	2.778376	0.818858	-2.121885	-1.237544	1.146286	0.050739	-5.875236	2.264902	-0.184764	-6.841133	-0.589261	0.721259	1.755615	-1.943946	-5.178943	2.736325	2.319121	-1.289027	6.304928	-0.803737	1.670074	29.720226	-2.518104	-2.093725	4.279592	1.905738	-0.649635	-2.788694	
